<?xml version="1.0" standalone="no"?>
<svg xmlns="http://www.w3.org/2000/svg" xmlns:xlink="http://www.w3.org/1999/xlink" width="1083pt" height="857pt" viewBox="0.00 0.00 1083.00 857.48">
<g id="graph0" class="graph" transform="translate(4,853.47998046875) scale(1)" data-name="DiskGraph">

<polygon fill="white" stroke="none" points="-4,4 -4,-853.48 1079,-853.48 1079,4 -4,4" style=""/>
<g id="clust1" class="cluster" data-name="cluster_graph">

<polygon fill="none" stroke="white" points="8,-8 8,-841.48 1067,-841.48 1067,-8 8,-8" style=""/>
</g>
<!-- &#45;4443841582234638169 -->
<g id="node1" class="node" pointer-events="visible" data-name="-4443841582234638169">

<ellipse fill="lightgrey" stroke="black" cx="261" cy="-804.07" rx="111.54" ry="29.33" style=""/>
<text text-anchor="middle" x="261" y="-808.27" font-family="Times,serif" font-size="14.00" style="">/\ seq = &lt;&lt;5, 3, 8, 1, 2&gt;&gt;</text>
<text text-anchor="middle" x="261" y="-791.47" font-family="Times,serif" font-size="14.00" style="">/\ sorting_done = FALSE</text>
</g>
<!-- &#45;4443841582234638169&#45;&gt;&#45;4443841582234638169 -->
<g id="edge3" class="edge" data-name="-4443841582234638169-&gt;-4443841582234638169">

<path fill="none" stroke="black" stroke-dasharray="5,2" d="M351.1,-821.79C377.4,-821.18 397.77,-815.27 397.77,-804.07 397.77,-794.52 383,-788.82 362.37,-786.96" style=""/>
<polygon fill="black" stroke="black" points="362.79,-783.48 352.61,-786.42 362.4,-790.47 362.79,-783.48" style=""/>
</g>
<!-- &#45;9122920935085603250 -->
<g id="node2" class="node" pointer-events="visible" data-name="-9122920935085603250">

<ellipse fill="none" stroke="black" cx="128" cy="-709.23" rx="111.54" ry="29.33" style=""/>
<text text-anchor="middle" x="128" y="-713.43" font-family="Times,serif" font-size="14.00" style="">/\ seq = &lt;&lt;3, 5, 8, 1, 2&gt;&gt;</text>
<text text-anchor="middle" x="128" y="-696.63" font-family="Times,serif" font-size="14.00" style="">/\ sorting_done = FALSE</text>
</g>
<!-- &#45;4443841582234638169&#45;&gt;&#45;9122920935085603250 -->
<g id="edge1" class="edge" data-name="-4443841582234638169-&gt;-9122920935085603250">

<path fill="none" stroke="#1f78b4" d="M222.53,-776.22C207.92,-766.02 191.1,-754.27 175.73,-743.55" style=""/>
<polygon fill="#1f78b4" stroke="#1f78b4" points="177.83,-740.74 167.62,-737.89 173.82,-746.48 177.83,-740.74" style=""/>
</g>
<!-- &#45;2698272683121077173 -->
<g id="node3" class="node" pointer-events="visible" data-name="-2698272683121077173">

<ellipse fill="none" stroke="black" cx="395" cy="-709.23" rx="111.54" ry="29.33" style=""/>
<text text-anchor="middle" x="395" y="-713.43" font-family="Times,serif" font-size="14.00" style="">/\ seq = &lt;&lt;5, 3, 1, 8, 2&gt;&gt;</text>
<text text-anchor="middle" x="395" y="-696.63" font-family="Times,serif" font-size="14.00" style="">/\ sorting_done = FALSE</text>
</g>
<!-- &#45;4443841582234638169&#45;&gt;&#45;2698272683121077173 -->
<g id="edge2" class="edge" data-name="-4443841582234638169-&gt;-2698272683121077173">

<path fill="none" stroke="#1f78b4" d="M299.76,-776.22C314.48,-766.02 331.43,-754.27 346.91,-743.55" style=""/>
<polygon fill="#1f78b4" stroke="#1f78b4" points="348.86,-746.46 355.08,-737.89 344.87,-740.7 348.86,-746.46" style=""/>
</g>
<!-- &#45;9122920935085603250&#45;&gt;&#45;9122920935085603250 -->
<g id="edge5" class="edge" data-name="-9122920935085603250-&gt;-9122920935085603250">

<path fill="none" stroke="black" stroke-dasharray="5,2" d="M218.1,-726.96C244.4,-726.35 264.77,-720.44 264.77,-709.23 264.77,-699.69 250,-693.99 229.37,-692.13" style=""/>
<polygon fill="black" stroke="black" points="229.79,-688.65 219.61,-691.59 229.4,-695.64 229.79,-688.65" style=""/>
</g>
<!-- &#45;7368630796231804254 -->
<g id="node4" class="node" pointer-events="visible" data-name="-7368630796231804254">

<ellipse fill="none" stroke="black" cx="128" cy="-614.4" rx="111.54" ry="29.33" style=""/>
<text text-anchor="middle" x="128" y="-618.6" font-family="Times,serif" font-size="14.00" style="">/\ seq = &lt;&lt;3, 5, 1, 8, 2&gt;&gt;</text>
<text text-anchor="middle" x="128" y="-601.8" font-family="Times,serif" font-size="14.00" style="">/\ sorting_done = FALSE</text>
</g>
<!-- &#45;9122920935085603250&#45;&gt;&#45;7368630796231804254 -->
<g id="edge4" class="edge" data-name="-9122920935085603250-&gt;-7368630796231804254">

<path fill="none" stroke="#1f78b4" d="M128,-679.62C128,-671.95 128,-663.51 128,-655.34" style=""/>
<polygon fill="#1f78b4" stroke="#1f78b4" points="131.5,-655.59 128,-645.59 124.5,-655.59 131.5,-655.59" style=""/>
</g>
<!-- &#45;2698272683121077173&#45;&gt;&#45;2698272683121077173 -->
<g id="edge9" class="edge" data-name="-2698272683121077173-&gt;-2698272683121077173">

<path fill="none" stroke="black" stroke-dasharray="5,2" d="M485.1,-726.96C511.4,-726.35 531.77,-720.44 531.77,-709.23 531.77,-699.69 517,-693.99 496.37,-692.13" style=""/>
<polygon fill="black" stroke="black" points="496.79,-688.65 486.61,-691.59 496.4,-695.64 496.79,-688.65" style=""/>
</g>
<!-- &#45;2698272683121077173&#45;&gt;&#45;7368630796231804254 -->
<g id="edge6" class="edge" data-name="-2698272683121077173-&gt;-7368630796231804254">

<path fill="none" stroke="#1f78b4" d="M329,-685.29C291.45,-672.23 244.24,-655.82 205.01,-642.18" style=""/>
<polygon fill="#1f78b4" stroke="#1f78b4" points="206.19,-638.88 195.6,-638.91 203.89,-645.5 206.19,-638.88" style=""/>
</g>
<!-- &#45;3644266653980858170 -->
<g id="node5" class="node" pointer-events="visible" data-name="-3644266653980858170">

<ellipse fill="none" stroke="black" cx="662" cy="-614.4" rx="111.54" ry="29.33" style=""/>
<text text-anchor="middle" x="662" y="-618.6" font-family="Times,serif" font-size="14.00" style="">/\ seq = &lt;&lt;5, 1, 3, 8, 2&gt;&gt;</text>
<text text-anchor="middle" x="662" y="-601.8" font-family="Times,serif" font-size="14.00" style="">/\ sorting_done = FALSE</text>
</g>
<!-- &#45;2698272683121077173&#45;&gt;&#45;3644266653980858170 -->
<g id="edge7" class="edge" data-name="-2698272683121077173-&gt;-3644266653980858170">

<path fill="none" stroke="#1f78b4" d="M461,-685.29C498.55,-672.23 545.76,-655.82 584.99,-642.18" style=""/>
<polygon fill="#1f78b4" stroke="#1f78b4" points="586.11,-645.5 594.4,-638.91 583.81,-638.88 586.11,-645.5" style=""/>
</g>
<!-- 5650315419949742625 -->
<g id="node6" class="node" pointer-events="visible" data-name="5650315419949742625">

<ellipse fill="none" stroke="black" cx="395" cy="-614.4" rx="111.54" ry="29.33" style=""/>
<text text-anchor="middle" x="395" y="-618.6" font-family="Times,serif" font-size="14.00" style="">/\ seq = &lt;&lt;5, 3, 1, 2, 8&gt;&gt;</text>
<text text-anchor="middle" x="395" y="-601.8" font-family="Times,serif" font-size="14.00" style="">/\ sorting_done = FALSE</text>
</g>
<!-- &#45;2698272683121077173&#45;&gt;5650315419949742625 -->
<g id="edge8" class="edge" data-name="-2698272683121077173-&gt;5650315419949742625">

<path fill="none" stroke="#1f78b4" d="M395,-679.62C395,-671.95 395,-663.51 395,-655.34" style=""/>
<polygon fill="#1f78b4" stroke="#1f78b4" points="398.5,-655.59 395,-645.59 391.5,-655.59 398.5,-655.59" style=""/>
</g>
<!-- &#45;7368630796231804254&#45;&gt;&#45;7368630796231804254 -->
<g id="edge12" class="edge" data-name="-7368630796231804254-&gt;-7368630796231804254">

<path fill="none" stroke="black" stroke-dasharray="5,2" d="M218.1,-632.13C244.4,-631.52 264.77,-625.61 264.77,-614.4 264.77,-604.86 250,-599.16 229.37,-597.3" style=""/>
<polygon fill="black" stroke="black" points="229.79,-593.82 219.61,-596.76 229.4,-600.81 229.79,-593.82" style=""/>
</g>
<!-- &#45;5296463704390073416 -->
<g id="node7" class="node" pointer-events="visible" data-name="-5296463704390073416">

<ellipse fill="none" stroke="black" cx="128" cy="-519.57" rx="111.54" ry="29.33" style=""/>
<text text-anchor="middle" x="128" y="-523.77" font-family="Times,serif" font-size="14.00" style="">/\ seq = &lt;&lt;3, 1, 5, 8, 2&gt;&gt;</text>
<text text-anchor="middle" x="128" y="-506.97" font-family="Times,serif" font-size="14.00" style="">/\ sorting_done = FALSE</text>
</g>
<!-- &#45;7368630796231804254&#45;&gt;&#45;5296463704390073416 -->
<g id="edge10" class="edge" data-name="-7368630796231804254-&gt;-5296463704390073416">

<path fill="none" stroke="#1f78b4" d="M128,-584.79C128,-577.12 128,-568.67 128,-560.51" style=""/>
<polygon fill="#1f78b4" stroke="#1f78b4" points="131.5,-560.76 128,-550.76 124.5,-560.76 131.5,-560.76" style=""/>
</g>
<!-- 961907672967337160 -->
<g id="node8" class="node" pointer-events="visible" data-name="961907672967337160">

<ellipse fill="none" stroke="black" cx="395" cy="-519.57" rx="111.54" ry="29.33" style=""/>
<text text-anchor="middle" x="395" y="-523.77" font-family="Times,serif" font-size="14.00" style="">/\ seq = &lt;&lt;3, 5, 1, 2, 8&gt;&gt;</text>
<text text-anchor="middle" x="395" y="-506.97" font-family="Times,serif" font-size="14.00" style="">/\ sorting_done = FALSE</text>
</g>
<!-- &#45;7368630796231804254&#45;&gt;961907672967337160 -->
<g id="edge11" class="edge" data-name="-7368630796231804254-&gt;961907672967337160">

<path fill="none" stroke="#1f78b4" d="M194,-590.46C231.55,-577.4 278.76,-560.99 317.99,-547.35" style=""/>
<polygon fill="#1f78b4" stroke="#1f78b4" points="319.11,-550.66 327.4,-544.07 316.81,-544.05 319.11,-550.66" style=""/>
</g>
<!-- &#45;3644266653980858170&#45;&gt;&#45;3644266653980858170 -->
<g id="edge15" class="edge" data-name="-3644266653980858170-&gt;-3644266653980858170">

<path fill="none" stroke="black" stroke-dasharray="5,2" d="M752.1,-632.13C778.4,-631.52 798.77,-625.61 798.77,-614.4 798.77,-604.86 784,-599.16 763.37,-597.3" style=""/>
<polygon fill="black" stroke="black" points="763.79,-593.82 753.61,-596.76 763.4,-600.81 763.79,-593.82" style=""/>
</g>
<!-- &#45;5713965264844086392 -->
<g id="node9" class="node" pointer-events="visible" data-name="-5713965264844086392">

<ellipse fill="none" stroke="black" cx="662" cy="-519.57" rx="111.54" ry="29.33" style=""/>
<text text-anchor="middle" x="662" y="-523.77" font-family="Times,serif" font-size="14.00" style="">/\ seq = &lt;&lt;1, 5, 3, 8, 2&gt;&gt;</text>
<text text-anchor="middle" x="662" y="-506.97" font-family="Times,serif" font-size="14.00" style="">/\ sorting_done = FALSE</text>
</g>
<!-- &#45;3644266653980858170&#45;&gt;&#45;5713965264844086392 -->
<g id="edge13" class="edge" data-name="-3644266653980858170-&gt;-5713965264844086392">

<path fill="none" stroke="#1f78b4" d="M662,-584.79C662,-577.12 662,-568.67 662,-560.51" style=""/>
<polygon fill="#1f78b4" stroke="#1f78b4" points="665.5,-560.76 662,-550.76 658.5,-560.76 665.5,-560.76" style=""/>
</g>
<!-- 6451629062329910956 -->
<g id="node10" class="node" pointer-events="visible" data-name="6451629062329910956">

<ellipse fill="none" stroke="black" cx="929" cy="-519.57" rx="111.54" ry="29.33" style=""/>
<text text-anchor="middle" x="929" y="-523.77" font-family="Times,serif" font-size="14.00" style="">/\ seq = &lt;&lt;5, 1, 3, 2, 8&gt;&gt;</text>
<text text-anchor="middle" x="929" y="-506.97" font-family="Times,serif" font-size="14.00" style="">/\ sorting_done = FALSE</text>
</g>
<!-- &#45;3644266653980858170&#45;&gt;6451629062329910956 -->
<g id="edge14" class="edge" data-name="-3644266653980858170-&gt;6451629062329910956">

<path fill="none" stroke="#1f78b4" d="M728,-590.46C765.55,-577.4 812.76,-560.99 851.99,-547.35" style=""/>
<polygon fill="#1f78b4" stroke="#1f78b4" points="853.11,-550.66 861.4,-544.07 850.81,-544.05 853.11,-550.66" style=""/>
</g>
<!-- 5650315419949742625&#45;&gt;5650315419949742625 -->
<g id="edge18" class="edge" data-name="5650315419949742625-&gt;5650315419949742625">

<path fill="none" stroke="black" stroke-dasharray="5,2" d="M485.1,-632.13C511.4,-631.52 531.77,-625.61 531.77,-614.4 531.77,-604.86 517,-599.16 496.37,-597.3" style=""/>
<polygon fill="black" stroke="black" points="496.79,-593.82 486.61,-596.76 496.4,-600.81 496.79,-593.82" style=""/>
</g>
<!-- 5650315419949742625&#45;&gt;961907672967337160 -->
<g id="edge16" class="edge" data-name="5650315419949742625-&gt;961907672967337160">

<path fill="none" stroke="#1f78b4" d="M395,-584.79C395,-577.12 395,-568.67 395,-560.51" style=""/>
<polygon fill="#1f78b4" stroke="#1f78b4" points="398.5,-560.76 395,-550.76 391.5,-560.76 398.5,-560.76" style=""/>
</g>
<!-- 5650315419949742625&#45;&gt;6451629062329910956 -->
<g id="edge17" class="edge" data-name="5650315419949742625-&gt;6451629062329910956">

<path fill="none" stroke="#1f78b4" d="M481.05,-595.41C499.78,-591.75 519.52,-588.07 538,-584.99 655.67,-565.35 686.61,-570.23 804,-548.99 814.68,-547.06 825.82,-544.83 836.86,-542.49" style=""/>
<polygon fill="#1f78b4" stroke="#1f78b4" points="837.34,-545.97 846.38,-540.44 835.86,-539.13 837.34,-545.97" style=""/>
</g>
<!-- &#45;5296463704390073416&#45;&gt;&#45;5296463704390073416 -->
<g id="edge21" class="edge" data-name="-5296463704390073416-&gt;-5296463704390073416">

<path fill="none" stroke="black" stroke-dasharray="5,2" d="M218.1,-537.3C244.4,-536.69 264.77,-530.78 264.77,-519.57 264.77,-510.03 250,-504.33 229.37,-502.47" style=""/>
<polygon fill="black" stroke="black" points="229.79,-498.99 219.61,-501.93 229.4,-505.97 229.79,-498.99" style=""/>
</g>
<!-- &#45;8606202584056256993 -->
<g id="node11" class="node" pointer-events="visible" data-name="-8606202584056256993">

<ellipse fill="none" stroke="black" cx="395" cy="-424.74" rx="111.54" ry="29.33" style=""/>
<text text-anchor="middle" x="395" y="-428.94" font-family="Times,serif" font-size="14.00" style="">/\ seq = &lt;&lt;1, 3, 5, 8, 2&gt;&gt;</text>
<text text-anchor="middle" x="395" y="-412.14" font-family="Times,serif" font-size="14.00" style="">/\ sorting_done = FALSE</text>
</g>
<!-- &#45;5296463704390073416&#45;&gt;&#45;8606202584056256993 -->
<g id="edge19" class="edge" data-name="-5296463704390073416-&gt;-8606202584056256993">

<path fill="none" stroke="#1f78b4" d="M194,-495.62C231.55,-482.57 278.76,-466.15 317.99,-452.51" style=""/>
<polygon fill="#1f78b4" stroke="#1f78b4" points="319.11,-455.83 327.4,-449.24 316.81,-449.22 319.11,-455.83" style=""/>
</g>
<!-- 2493607610121268690 -->
<g id="node12" class="node" pointer-events="visible" data-name="2493607610121268690">

<ellipse fill="none" stroke="black" cx="128" cy="-424.74" rx="111.54" ry="29.33" style=""/>
<text text-anchor="middle" x="128" y="-428.94" font-family="Times,serif" font-size="14.00" style="">/\ seq = &lt;&lt;3, 1, 5, 2, 8&gt;&gt;</text>
<text text-anchor="middle" x="128" y="-412.14" font-family="Times,serif" font-size="14.00" style="">/\ sorting_done = FALSE</text>
</g>
<!-- &#45;5296463704390073416&#45;&gt;2493607610121268690 -->
<g id="edge20" class="edge" data-name="-5296463704390073416-&gt;2493607610121268690">

<path fill="none" stroke="#1f78b4" d="M128,-489.96C128,-482.29 128,-473.84 128,-465.67" style=""/>
<polygon fill="#1f78b4" stroke="#1f78b4" points="131.5,-465.93 128,-455.93 124.5,-465.93 131.5,-465.93" style=""/>
</g>
<!-- 961907672967337160&#45;&gt;961907672967337160 -->
<g id="edge23" class="edge" data-name="961907672967337160-&gt;961907672967337160">

<path fill="none" stroke="black" stroke-dasharray="5,2" d="M485.1,-537.3C511.4,-536.69 531.77,-530.78 531.77,-519.57 531.77,-510.03 517,-504.33 496.37,-502.47" style=""/>
<polygon fill="black" stroke="black" points="496.79,-498.99 486.61,-501.93 496.4,-505.97 496.79,-498.99" style=""/>
</g>
<!-- 961907672967337160&#45;&gt;2493607610121268690 -->
<g id="edge22" class="edge" data-name="961907672967337160-&gt;2493607610121268690">

<path fill="none" stroke="#1f78b4" d="M329,-495.62C291.45,-482.57 244.24,-466.15 205.01,-452.51" style=""/>
<polygon fill="#1f78b4" stroke="#1f78b4" points="206.19,-449.22 195.6,-449.24 203.89,-455.83 206.19,-449.22" style=""/>
</g>
<!-- &#45;5713965264844086392&#45;&gt;&#45;5713965264844086392 -->
<g id="edge26" class="edge" data-name="-5713965264844086392-&gt;-5713965264844086392">

<path fill="none" stroke="black" stroke-dasharray="5,2" d="M752.1,-537.3C778.4,-536.69 798.77,-530.78 798.77,-519.57 798.77,-510.03 784,-504.33 763.37,-502.47" style=""/>
<polygon fill="black" stroke="black" points="763.79,-498.99 753.61,-501.93 763.4,-505.97 763.79,-498.99" style=""/>
</g>
<!-- &#45;5713965264844086392&#45;&gt;&#45;8606202584056256993 -->
<g id="edge24" class="edge" data-name="-5713965264844086392-&gt;-8606202584056256993">

<path fill="none" stroke="#1f78b4" d="M596,-495.62C558.45,-482.57 511.24,-466.15 472.01,-452.51" style=""/>
<polygon fill="#1f78b4" stroke="#1f78b4" points="473.19,-449.22 462.6,-449.24 470.89,-455.83 473.19,-449.22" style=""/>
</g>
<!-- 2618797450208841186 -->
<g id="node13" class="node" pointer-events="visible" data-name="2618797450208841186">

<ellipse fill="none" stroke="black" cx="662" cy="-424.74" rx="111.54" ry="29.33" style=""/>
<text text-anchor="middle" x="662" y="-428.94" font-family="Times,serif" font-size="14.00" style="">/\ seq = &lt;&lt;1, 5, 3, 2, 8&gt;&gt;</text>
<text text-anchor="middle" x="662" y="-412.14" font-family="Times,serif" font-size="14.00" style="">/\ sorting_done = FALSE</text>
</g>
<!-- &#45;5713965264844086392&#45;&gt;2618797450208841186 -->
<g id="edge25" class="edge" data-name="-5713965264844086392-&gt;2618797450208841186">

<path fill="none" stroke="#1f78b4" d="M662,-489.96C662,-482.29 662,-473.84 662,-465.67" style=""/>
<polygon fill="#1f78b4" stroke="#1f78b4" points="665.5,-465.93 662,-455.93 658.5,-465.93 665.5,-465.93" style=""/>
</g>
<!-- 6451629062329910956&#45;&gt;6451629062329910956 -->
<g id="edge29" class="edge" data-name="6451629062329910956-&gt;6451629062329910956">

<path fill="none" stroke="black" stroke-dasharray="5,2" d="M1019.1,-537.3C1045.4,-536.69 1065.77,-530.78 1065.77,-519.57 1065.77,-510.03 1051,-504.33 1030.37,-502.47" style=""/>
<polygon fill="black" stroke="black" points="1030.79,-498.99 1020.61,-501.93 1030.4,-505.97 1030.79,-498.99" style=""/>
</g>
<!-- 6451629062329910956&#45;&gt;2618797450208841186 -->
<g id="edge27" class="edge" data-name="6451629062329910956-&gt;2618797450208841186">

<path fill="none" stroke="#1f78b4" d="M863,-495.62C825.45,-482.57 778.24,-466.15 739.01,-452.51" style=""/>
<polygon fill="#1f78b4" stroke="#1f78b4" points="740.19,-449.22 729.6,-449.24 737.89,-455.83 740.19,-449.22" style=""/>
</g>
<!-- 6556478153342975520 -->
<g id="node14" class="node" pointer-events="visible" data-name="6556478153342975520">

<ellipse fill="none" stroke="black" cx="929" cy="-424.74" rx="111.54" ry="29.33" style=""/>
<text text-anchor="middle" x="929" y="-428.94" font-family="Times,serif" font-size="14.00" style="">/\ seq = &lt;&lt;5, 1, 2, 3, 8&gt;&gt;</text>
<text text-anchor="middle" x="929" y="-412.14" font-family="Times,serif" font-size="14.00" style="">/\ sorting_done = FALSE</text>
</g>
<!-- 6451629062329910956&#45;&gt;6556478153342975520 -->
<g id="edge28" class="edge" data-name="6451629062329910956-&gt;6556478153342975520">

<path fill="none" stroke="#1f78b4" d="M929,-489.96C929,-482.29 929,-473.84 929,-465.67" style=""/>
<polygon fill="#1f78b4" stroke="#1f78b4" points="932.5,-465.93 929,-455.93 925.5,-465.93 932.5,-465.93" style=""/>
</g>
<!-- &#45;8606202584056256993&#45;&gt;&#45;8606202584056256993 -->
<g id="edge31" class="edge" data-name="-8606202584056256993-&gt;-8606202584056256993">

<path fill="none" stroke="black" stroke-dasharray="5,2" d="M485.1,-442.47C511.4,-441.86 531.77,-435.95 531.77,-424.74 531.77,-415.2 517,-409.5 496.37,-407.64" style=""/>
<polygon fill="black" stroke="black" points="496.79,-404.15 486.61,-407.1 496.4,-411.14 496.79,-404.15" style=""/>
</g>
<!-- 2050436227188820085 -->
<g id="node15" class="node" pointer-events="visible" data-name="2050436227188820085">

<ellipse fill="none" stroke="black" cx="395" cy="-329.91" rx="111.54" ry="29.33" style=""/>
<text text-anchor="middle" x="395" y="-334.11" font-family="Times,serif" font-size="14.00" style="">/\ seq = &lt;&lt;1, 3, 5, 2, 8&gt;&gt;</text>
<text text-anchor="middle" x="395" y="-317.31" font-family="Times,serif" font-size="14.00" style="">/\ sorting_done = FALSE</text>
</g>
<!-- &#45;8606202584056256993&#45;&gt;2050436227188820085 -->
<g id="edge30" class="edge" data-name="-8606202584056256993-&gt;2050436227188820085">

<path fill="none" stroke="#1f78b4" d="M395,-395.13C395,-387.45 395,-379.01 395,-370.84" style=""/>
<polygon fill="#1f78b4" stroke="#1f78b4" points="398.5,-371.1 395,-361.1 391.5,-371.1 398.5,-371.1" style=""/>
</g>
<!-- 2493607610121268690&#45;&gt;2493607610121268690 -->
<g id="edge34" class="edge" data-name="2493607610121268690-&gt;2493607610121268690">

<path fill="none" stroke="black" stroke-dasharray="5,2" d="M218.1,-442.47C244.4,-441.86 264.77,-435.95 264.77,-424.74 264.77,-415.2 250,-409.5 229.37,-407.64" style=""/>
<polygon fill="black" stroke="black" points="229.79,-404.15 219.61,-407.1 229.4,-411.14 229.79,-404.15" style=""/>
</g>
<!-- 2493607610121268690&#45;&gt;2050436227188820085 -->
<g id="edge32" class="edge" data-name="2493607610121268690-&gt;2050436227188820085">

<path fill="none" stroke="#1f78b4" d="M194,-400.79C231.55,-387.74 278.76,-371.32 317.99,-357.68" style=""/>
<polygon fill="#1f78b4" stroke="#1f78b4" points="319.11,-361 327.4,-354.41 316.81,-354.39 319.11,-361" style=""/>
</g>
<!-- 3085972136332920438 -->
<g id="node16" class="node" pointer-events="visible" data-name="3085972136332920438">

<ellipse fill="none" stroke="black" cx="128" cy="-329.91" rx="111.54" ry="29.33" style=""/>
<text text-anchor="middle" x="128" y="-334.11" font-family="Times,serif" font-size="14.00" style="">/\ seq = &lt;&lt;3, 1, 2, 5, 8&gt;&gt;</text>
<text text-anchor="middle" x="128" y="-317.31" font-family="Times,serif" font-size="14.00" style="">/\ sorting_done = FALSE</text>
</g>
<!-- 2493607610121268690&#45;&gt;3085972136332920438 -->
<g id="edge33" class="edge" data-name="2493607610121268690-&gt;3085972136332920438">

<path fill="none" stroke="#1f78b4" d="M128,-395.13C128,-387.45 128,-379.01 128,-370.84" style=""/>
<polygon fill="#1f78b4" stroke="#1f78b4" points="131.5,-371.1 128,-361.1 124.5,-371.1 131.5,-371.1" style=""/>
</g>
<!-- 2618797450208841186&#45;&gt;2618797450208841186 -->
<g id="edge37" class="edge" data-name="2618797450208841186-&gt;2618797450208841186">

<path fill="none" stroke="black" stroke-dasharray="5,2" d="M752.1,-442.47C778.4,-441.86 798.77,-435.95 798.77,-424.74 798.77,-415.2 784,-409.5 763.37,-407.64" style=""/>
<polygon fill="black" stroke="black" points="763.79,-404.15 753.61,-407.1 763.4,-411.14 763.79,-404.15" style=""/>
</g>
<!-- 2618797450208841186&#45;&gt;2050436227188820085 -->
<g id="edge35" class="edge" data-name="2618797450208841186-&gt;2050436227188820085">

<path fill="none" stroke="#1f78b4" d="M596,-400.79C558.45,-387.74 511.24,-371.32 472.01,-357.68" style=""/>
<polygon fill="#1f78b4" stroke="#1f78b4" points="473.19,-354.39 462.6,-354.41 470.89,-361 473.19,-354.39" style=""/>
</g>
<!-- 2819911082309236078 -->
<g id="node17" class="node" pointer-events="visible" data-name="2819911082309236078">

<ellipse fill="none" stroke="black" cx="662" cy="-329.91" rx="111.54" ry="29.33" style=""/>
<text text-anchor="middle" x="662" y="-334.11" font-family="Times,serif" font-size="14.00" style="">/\ seq = &lt;&lt;1, 5, 2, 3, 8&gt;&gt;</text>
<text text-anchor="middle" x="662" y="-317.31" font-family="Times,serif" font-size="14.00" style="">/\ sorting_done = FALSE</text>
</g>
<!-- 2618797450208841186&#45;&gt;2819911082309236078 -->
<g id="edge36" class="edge" data-name="2618797450208841186-&gt;2819911082309236078">

<path fill="none" stroke="#1f78b4" d="M662,-395.13C662,-387.45 662,-379.01 662,-370.84" style=""/>
<polygon fill="#1f78b4" stroke="#1f78b4" points="665.5,-371.1 662,-361.1 658.5,-371.1 665.5,-371.1" style=""/>
</g>
<!-- 6556478153342975520&#45;&gt;6556478153342975520 -->
<g id="edge39" class="edge" data-name="6556478153342975520-&gt;6556478153342975520">

<path fill="none" stroke="black" stroke-dasharray="5,2" d="M1019.1,-442.47C1045.4,-441.86 1065.77,-435.95 1065.77,-424.74 1065.77,-415.2 1051,-409.5 1030.37,-407.64" style=""/>
<polygon fill="black" stroke="black" points="1030.79,-404.15 1020.61,-407.1 1030.4,-411.14 1030.79,-404.15" style=""/>
</g>
<!-- 6556478153342975520&#45;&gt;2819911082309236078 -->
<g id="edge38" class="edge" data-name="6556478153342975520-&gt;2819911082309236078">

<path fill="none" stroke="#1f78b4" d="M863,-400.79C825.45,-387.74 778.24,-371.32 739.01,-357.68" style=""/>
<polygon fill="#1f78b4" stroke="#1f78b4" points="740.19,-354.39 729.6,-354.41 737.89,-361 740.19,-354.39" style=""/>
</g>
<!-- 2050436227188820085&#45;&gt;2050436227188820085 -->
<g id="edge41" class="edge" data-name="2050436227188820085-&gt;2050436227188820085">

<path fill="none" stroke="black" stroke-dasharray="5,2" d="M485.1,-347.64C511.4,-347.02 531.77,-341.12 531.77,-329.91 531.77,-320.37 517,-314.67 496.37,-312.8" style=""/>
<polygon fill="black" stroke="black" points="496.79,-309.32 486.61,-312.27 496.4,-316.31 496.79,-309.32" style=""/>
</g>
<!-- 1458072559985828817 -->
<g id="node18" class="node" pointer-events="visible" data-name="1458072559985828817">

<ellipse fill="none" stroke="black" cx="395" cy="-235.08" rx="111.54" ry="29.33" style=""/>
<text text-anchor="middle" x="395" y="-239.28" font-family="Times,serif" font-size="14.00" style="">/\ seq = &lt;&lt;1, 3, 2, 5, 8&gt;&gt;</text>
<text text-anchor="middle" x="395" y="-222.48" font-family="Times,serif" font-size="14.00" style="">/\ sorting_done = FALSE</text>
</g>
<!-- 2050436227188820085&#45;&gt;1458072559985828817 -->
<g id="edge40" class="edge" data-name="2050436227188820085-&gt;1458072559985828817">

<path fill="none" stroke="#1f78b4" d="M395,-300.3C395,-292.62 395,-284.18 395,-276.01" style=""/>
<polygon fill="#1f78b4" stroke="#1f78b4" points="398.5,-276.27 395,-266.27 391.5,-276.27 398.5,-276.27" style=""/>
</g>
<!-- 3085972136332920438&#45;&gt;3085972136332920438 -->
<g id="edge43" class="edge" data-name="3085972136332920438-&gt;3085972136332920438">

<path fill="none" stroke="black" stroke-dasharray="5,2" d="M218.1,-347.64C244.4,-347.02 264.77,-341.12 264.77,-329.91 264.77,-320.37 250,-314.67 229.37,-312.8" style=""/>
<polygon fill="black" stroke="black" points="229.79,-309.32 219.61,-312.27 229.4,-316.31 229.79,-309.32" style=""/>
</g>
<!-- 3085972136332920438&#45;&gt;1458072559985828817 -->
<g id="edge42" class="edge" data-name="3085972136332920438-&gt;1458072559985828817">

<path fill="none" stroke="#1f78b4" d="M194,-305.96C231.55,-292.91 278.76,-276.49 317.99,-262.85" style=""/>
<polygon fill="#1f78b4" stroke="#1f78b4" points="319.11,-266.17 327.4,-259.58 316.81,-259.56 319.11,-266.17" style=""/>
</g>
<!-- 2819911082309236078&#45;&gt;2819911082309236078 -->
<g id="edge45" class="edge" data-name="2819911082309236078-&gt;2819911082309236078">

<path fill="none" stroke="black" stroke-dasharray="5,2" d="M752.1,-347.64C778.4,-347.02 798.77,-341.12 798.77,-329.91 798.77,-320.37 784,-314.67 763.37,-312.8" style=""/>
<polygon fill="black" stroke="black" points="763.79,-309.32 753.61,-312.27 763.4,-316.31 763.79,-309.32" style=""/>
</g>
<!-- &#45;1546621078197989569 -->
<g id="node19" class="node" pointer-events="visible" data-name="-1546621078197989569">

<ellipse fill="none" stroke="black" cx="662" cy="-235.08" rx="111.54" ry="29.33" style=""/>
<text text-anchor="middle" x="662" y="-239.28" font-family="Times,serif" font-size="14.00" style="">/\ seq = &lt;&lt;1, 2, 5, 3, 8&gt;&gt;</text>
<text text-anchor="middle" x="662" y="-222.48" font-family="Times,serif" font-size="14.00" style="">/\ sorting_done = FALSE</text>
</g>
<!-- 2819911082309236078&#45;&gt;&#45;1546621078197989569 -->
<g id="edge44" class="edge" data-name="2819911082309236078-&gt;-1546621078197989569">

<path fill="none" stroke="#1f78b4" d="M662,-300.3C662,-292.62 662,-284.18 662,-276.01" style=""/>
<polygon fill="#1f78b4" stroke="#1f78b4" points="665.5,-276.27 662,-266.27 658.5,-276.27 665.5,-276.27" style=""/>
</g>
<!-- 1458072559985828817&#45;&gt;1458072559985828817 -->
<g id="edge47" class="edge" data-name="1458072559985828817-&gt;1458072559985828817">

<path fill="none" stroke="black" stroke-dasharray="5,2" d="M485.1,-252.81C511.4,-252.19 531.77,-246.28 531.77,-235.08 531.77,-225.54 517,-219.83 496.37,-217.97" style=""/>
<polygon fill="black" stroke="black" points="496.79,-214.49 486.61,-217.43 496.4,-221.48 496.79,-214.49" style=""/>
</g>
<!-- &#45;2183034555682644969 -->
<g id="node20" class="node" pointer-events="visible" data-name="-2183034555682644969">

<ellipse fill="none" stroke="black" cx="528" cy="-140.25" rx="111.54" ry="29.33" style=""/>
<text text-anchor="middle" x="528" y="-144.45" font-family="Times,serif" font-size="14.00" style="">/\ seq = &lt;&lt;1, 2, 3, 5, 8&gt;&gt;</text>
<text text-anchor="middle" x="528" y="-127.65" font-family="Times,serif" font-size="14.00" style="">/\ sorting_done = FALSE</text>
</g>
<!-- 1458072559985828817&#45;&gt;&#45;2183034555682644969 -->
<g id="edge46" class="edge" data-name="1458072559985828817-&gt;-2183034555682644969">

<path fill="none" stroke="#1f78b4" d="M433.47,-207.23C448.08,-197.03 464.9,-185.29 480.27,-174.56" style=""/>
<polygon fill="#1f78b4" stroke="#1f78b4" points="482.18,-177.5 488.38,-168.9 478.17,-171.76 482.18,-177.5" style=""/>
</g>
<!-- &#45;1546621078197989569&#45;&gt;&#45;1546621078197989569 -->
<g id="edge49" class="edge" data-name="-1546621078197989569-&gt;-1546621078197989569">

<path fill="none" stroke="black" stroke-dasharray="5,2" d="M752.1,-252.81C778.4,-252.19 798.77,-246.28 798.77,-235.08 798.77,-225.54 784,-219.83 763.37,-217.97" style=""/>
<polygon fill="black" stroke="black" points="763.79,-214.49 753.61,-217.43 763.4,-221.48 763.79,-214.49" style=""/>
</g>
<!-- &#45;1546621078197989569&#45;&gt;&#45;2183034555682644969 -->
<g id="edge48" class="edge" data-name="-1546621078197989569-&gt;-2183034555682644969">

<path fill="none" stroke="#1f78b4" d="M623.24,-207.23C608.52,-197.03 591.57,-185.29 576.09,-174.56" style=""/>
<polygon fill="#1f78b4" stroke="#1f78b4" points="578.13,-171.72 567.92,-168.9 574.14,-177.47 578.13,-171.72" style=""/>
</g>
<!-- &#45;2183034555682644969&#45;&gt;&#45;2183034555682644969 -->
<g id="edge51" class="edge" data-name="-2183034555682644969-&gt;-2183034555682644969">

<path fill="none" stroke="black" stroke-dasharray="5,2" d="M618.1,-157.97C644.4,-157.36 664.77,-151.45 664.77,-140.25 664.77,-130.7 650,-125 629.37,-123.14" style=""/>
<polygon fill="black" stroke="black" points="629.79,-119.66 619.61,-122.6 629.4,-126.65 629.79,-119.66" style=""/>
</g>
<!-- &#45;179379725217194719 -->
<g id="node21" class="node" pointer-events="visible" data-name="-179379725217194719">

<ellipse fill="none" stroke="black" cx="528" cy="-45.42" rx="109.8" ry="29.33" style=""/>
<text text-anchor="middle" x="528" y="-49.62" font-family="Times,serif" font-size="14.00" style="">/\ seq = &lt;&lt;1, 2, 3, 5, 8&gt;&gt;</text>
<text text-anchor="middle" x="528" y="-32.82" font-family="Times,serif" font-size="14.00" style="">/\ sorting_done = TRUE</text>
</g>
<!-- &#45;2183034555682644969&#45;&gt;&#45;179379725217194719 -->
<g id="edge50" class="edge" data-name="-2183034555682644969-&gt;-179379725217194719">

<path fill="none" stroke="#1f78b4" d="M528,-110.64C528,-102.96 528,-94.52 528,-86.35" style=""/>
<polygon fill="#1f78b4" stroke="#1f78b4" points="531.5,-86.6 528,-76.6 524.5,-86.6 531.5,-86.6" style=""/>
</g>
<!-- &#45;179379725217194719&#45;&gt;&#45;179379725217194719 -->
<g id="edge52" class="edge" data-name="-179379725217194719-&gt;-179379725217194719">

<path fill="none" stroke="#1f78b4" stroke-dasharray="5,2" d="M616.55,-63.15C642.64,-62.58 662.9,-56.67 662.9,-45.42 662.9,-35.88 648.34,-30.18 628.02,-28.31" style=""/>
<polygon fill="#1f78b4" stroke="#1f78b4" points="628.24,-24.82 618.06,-27.76 627.85,-31.81 628.24,-24.82" style=""/>
</g>
</g>
</svg>